<?xml version="1.0" standalone="no"?>
<!DOCTYPE svg PUBLIC "-//W3C//DTD SVG 20010904//EN"
 "http://www.w3.org/TR/2001/REC-SVG-20010904/DTD/svg10.dtd">
<svg version="1.0" xmlns="http://www.w3.org/2000/svg"
 width="700.000000pt" height="700.000000pt" viewBox="0 0 700.000000 700.000000"
 preserveAspectRatio="xMidYMid meet">
<metadata>
Created by potrace 1.14, written by Peter Selinger 2001-2017
</metadata>
<g transform="translate(0.000000,700.000000) scale(0.100000,-0.100000)"
fill="#000000" stroke="none">
<path d="M3000 6977 c-26 -14 -59 -44 -79 -72 l-35 -48 -1 -273 c0 -150 -3
-275 -6 -279 -4 -3 -55 -19 -115 -35 -261 -70 -542 -189 -750 -318 -28 -18
-53 -32 -56 -32 -3 0 -89 83 -191 184 -163 162 -192 187 -235 199 -54 17 -95
14 -146 -7 -54 -22 -670 -642 -685 -689 -41 -122 -25 -152 195 -374 101 -101
184 -187 184 -189 0 -3 -25 -48 -56 -101 -64 -108 -179 -345 -190 -389 -4 -16
-10 -33 -14 -39 -9 -11 -88 -254 -94 -289 -2 -12 -9 -41 -16 -66 l-11 -45
-272 0 c-270 -1 -272 -1 -317 -25 -24 -14 -58 -45 -75 -68 l-30 -44 -3 -454
c-2 -308 1 -467 8 -495 16 -58 85 -125 141 -136 23 -5 156 -8 295 -8 l252 0
17 -70 c28 -114 94 -311 142 -424 48 -113 157 -327 198 -387 14 -20 25 -40 25
-44 0 -4 -83 -91 -185 -194 -162 -164 -186 -192 -199 -236 -15 -50 -14 -78 6
-139 16 -50 640 -673 691 -690 122 -41 151 -25 374 195 102 101 187 184 190
184 2 0 46 -25 98 -55 51 -30 96 -55 101 -55 4 0 15 -6 23 -13 23 -19 251
-119 356 -157 50 -17 146 -47 214 -66 68 -19 127 -37 130 -40 3 -3 6 -125 6
-272 1 -237 3 -271 19 -305 23 -46 79 -94 126 -107 51 -14 898 -13 941 1 52
18 97 56 121 102 21 40 22 55 22 314 l1 272 45 11 c25 7 54 14 65 16 11 2 72
20 135 40 204 64 397 149 593 263 49 28 90 51 92 51 2 0 87 -83 189 -184 194
-193 228 -216 303 -210 84 7 98 18 423 343 190 190 323 331 333 354 24 50 27
93 10 150 -12 41 -38 72 -198 234 -102 102 -185 188 -185 191 0 2 21 39 46 81
58 94 172 331 209 431 54 148 89 257 100 308 2 9 8 37 15 62 l11 45 272 0
c270 1 272 1 317 25 24 14 58 45 75 68 l30 44 2 467 c3 456 2 467 -18 509 -22
44 -77 94 -119 108 -14 4 -144 8 -290 8 l-265 1 -12 38 c-7 21 -15 49 -17 63
-9 48 -68 228 -109 334 -46 119 -140 311 -204 416 -24 39 -43 74 -43 77 0 3
81 87 181 187 108 109 187 197 196 219 20 46 20 116 -1 164 -18 44 -624 655
-675 682 -42 21 -126 22 -173 2 -22 -9 -108 -86 -218 -196 -100 -100 -184
-181 -187 -181 -3 0 -43 23 -88 50 -148 89 -459 229 -580 261 -16 4 -61 17
-100 28 -38 12 -79 23 -90 25 -11 2 -31 7 -45 10 l-25 7 0 272 c-1 270 -1 272
-25 317 -14 24 -45 58 -68 75 l-44 30 -467 3 -466 3 -45 -24z"/>
</g>
</svg>
