<svg id="Layer_1" enable-background="new 0 0 512 512" height="512" viewBox="0 0 512 512" width="512" xmlns="http://www.w3.org/2000/svg"><g><g><g><g><g><g><path d="m420.599 512h-373.006v-476.958h373.006z" fill="#b5ceff"/></g></g></g></g><g><g><g><g><g><path d="m464.407 476.958-123.996-38.126-182.833-15.948c-38.268-6.744-66.177-40.072-66.177-79.028v-343.856h373.006z" fill="#e9f2ff"/></g></g></g></g><path d="m412.898 0v467.88l51.509 9.078v-476.958z" fill="#deebff"/><path d="m159.54 422.957 304.866 54.001-237.026-144.431s3.159 90.43-67.84 90.43z" fill="#91a8dd"/></g></g><g fill="#91a8dd"><path d="m159.981 85.99h235.845c4.267 0 7.726-3.459 7.726-7.726s-3.459-7.726-7.726-7.726h-235.845c-4.267 0-7.726 3.459-7.726 7.726s3.459 7.726 7.726 7.726z"/><path d="m395.826 118.177h-235.845c-4.267 0-7.726 3.459-7.726 7.726s3.459 7.726 7.726 7.726h235.845c4.267 0 7.726-3.459 7.726-7.726s-3.458-7.726-7.726-7.726z"/><path d="m395.826 165.815h-235.845c-4.267 0-7.726 3.459-7.726 7.726s3.459 7.726 7.726 7.726h235.845c4.267 0 7.726-3.459 7.726-7.726s-3.458-7.726-7.726-7.726z"/><path d="m395.826 213.454h-235.845c-4.267 0-7.726 3.459-7.726 7.726s3.459 7.726 7.726 7.726h235.845c4.267 0 7.726-3.459 7.726-7.726s-3.458-7.726-7.726-7.726z"/></g></g></svg>