<svg id="Capa_1" enable-background="new 0 0 512 512" height="512" viewBox="0 0 512 512" width="512" xmlns="http://www.w3.org/2000/svg" xmlns:xlink="http://www.w3.org/1999/xlink"><linearGradient id="SVGID_1_" gradientUnits="userSpaceOnUse" x1="256" x2="256" y1="512" y2="0"><stop offset="0" stop-color="#5558ff"/><stop offset="1" stop-color="#00c0ff"/></linearGradient><linearGradient id="SVGID_2_" gradientUnits="userSpaceOnUse" x1="256" x2="256" y1="391" y2="121"><stop offset="0" stop-color="#addcff"/><stop offset=".5028" stop-color="#eaf6ff"/><stop offset="1" stop-color="#eaf6ff"/></linearGradient><g><g><g><path d="m497 211h-36.116c-5.307-24.094-14.906-47.235-28.221-68.025l24.862-24.862c5.858-5.857 5.854-15.36 0-21.213l-42.425-42.425c-5.857-5.858-15.355-5.858-21.213 0l-24.862 24.862c-20.791-13.315-43.931-22.915-68.025-28.222v-36.115c0-8.284-6.716-15-15-15h-60c-8.284 0-15 6.716-15 15v36.115c-24.094 5.307-47.234 14.907-68.024 28.221l-24.862-24.862c-5.857-5.858-15.355-5.858-21.213 0l-42.426 42.426c-5.858 5.857-5.854 15.36 0 21.213l24.862 24.862c-13.315 20.79-22.914 43.931-28.221 68.025h-36.116c-8.284 0-15 6.716-15 15v60c0 8.284 6.716 15 15 15h36.116c5.307 24.092 14.906 47.232 28.221 68.024l-24.862 24.86c-5.858 5.857-5.854 15.36 0 21.213l42.425 42.428c5.856 5.857 15.359 5.855 21.213 0l24.862-24.862c20.789 13.314 43.931 22.914 68.024 28.221v36.116c0 8.284 6.716 15 15 15h60c8.284 0 15-6.716 15-15v-36.116c24.094-5.307 47.235-14.907 68.024-28.221l24.862 24.862c5.856 5.857 15.359 5.854 21.213 0l42.426-42.427c5.858-5.857 5.854-15.361 0-21.213l-24.862-24.86c13.314-20.792 22.914-43.932 28.221-68.024h36.117c8.284 0 15-6.716 15-15v-60c0-8.285-6.716-15.001-15-15.001z" fill="url(#SVGID_1_)"/></g></g><g><g><path d="m256 121c-74.439 0-135 60.561-135 135s60.561 135 135 135 135-60.561 135-135-60.561-135-135-135zm15 195c0 8.284-6.716 15-15 15s-15-6.716-15-15v-60c0-8.284 6.716-15 15-15s15 6.716 15 15zm-15-105c-8.284 0-15-6.716-15-15s6.716-15 15-15 15 6.716 15 15-6.716 15-15 15z" fill="url(#SVGID_2_)"/></g></g></g></svg>